HIERARCHY
ROOT SpineBase
{
  OFFSET 0.000000 0.000000 0.000000
  CHANNELS 6 Xposition Yposition Zposition Zrotation Xrotation Yrotation
  JOINT SpineMid
  {
    OFFSET 0.000000 28.394704 0.000000
    CHANNELS 3 Zrotation Xrotation Yrotation
    JOINT SpineShoulder
    {
      OFFSET -0.056498 21.062413 -0.697638
      CHANNELS 3 Zrotation Xrotation Yrotation
      JOINT Neck
      {
        OFFSET -0.045261 6.966228 -0.528196
        CHANNELS 3 Zrotation Xrotation Yrotation
        JOINT Head
        {
          OFFSET -2.355958 10.668941 -0.809827
          CHANNELS 3 Zrotation Xrotation Yrotation
          End Site
          {
            OFFSET 0 0 0
          }
        }
      }
      JOINT ShoulderLeft
      {
        OFFSET -16.891392 -1.493229 5.505884
        CHANNELS 3 Zrotation Xrotation Yrotation
        JOINT ElbowLeft
        {
          OFFSET -7.027882 -23.141910 -0.994248
          CHANNELS 3 Zrotation Xrotation Yrotation
          JOINT WristLeft
          {
            OFFSET 7.939990 1.372122 -29.742737
            CHANNELS 3 Zrotation Xrotation Yrotation
            JOINT HandLeft
            {
              OFFSET 5.647086 -1.108222 -5.660817
              CHANNELS 3 Zrotation Xrotation Yrotation
              JOINT HandTipLeft
              {
                OFFSET 3.666533 -0.970680 -2.249792
                CHANNELS 3 Zrotation Xrotation Yrotation
                End Site
                {
                  OFFSET 0 0 0
                }
              }
              JOINT ThumbLeft
              {
                OFFSET -3.165311 2.699317 -2.699964
                CHANNELS 3 Zrotation Xrotation Yrotation
                End Site
                {
                  OFFSET 0 0 0
                }
              }
            }
          }
        }
      }
      JOINT ShoulderRight
      {
        OFFSET 14.374459 -0.988136 -6.530328
        CHANNELS 3 Zrotation Xrotation Yrotation
        JOINT ElbowRight
        {
          OFFSET 6.442079 -22.736858 -7.806706
          CHANNELS 3 Zrotation Xrotation Yrotation
          JOINT WristRight
          {
            OFFSET -25.982525 -1.574998 -15.765613
            CHANNELS 3 Zrotation Xrotation Yrotation
            JOINT HandRight
            {
              OFFSET -2.998563 0.509666 -1.649865
              CHANNELS 3 Zrotation Xrotation Yrotation
              JOINT HandTipRight
              {
                OFFSET -3.832455 1.832996 -1.552070
                CHANNELS 3 Zrotation Xrotation Yrotation
                End Site
                {
                  OFFSET 0 0 0
                }
              }
              JOINT ThumbRight
              {
                OFFSET 0.511006 -3.075672 -1.575432
                CHANNELS 3 Zrotation Xrotation Yrotation
                End Site
                {
                  OFFSET 0 0 0
                }
              }
            }
          }
        }
      }
    }
  }
  JOINT HipLeft
  {
    OFFSET -7.152327 0.273920 -1.570476
    CHANNELS 3 Zrotation Xrotation Yrotation
    JOINT KneeLeft
    {
      OFFSET -4.916728 -31.163216 1.633393
      CHANNELS 3 Zrotation Xrotation Yrotation
      JOINT AnkleLeft
      {
        OFFSET -0.472046 -34.063066 5.898852
        CHANNELS 3 Zrotation Xrotation Yrotation
        JOINT FootLeft
        {
          OFFSET -3.239036 -3.886264 -12.520216
          CHANNELS 3 Zrotation Xrotation Yrotation
          End Site
          {
            OFFSET 0 0 0
          }
        }
      }
    }
  }
  JOINT HipRight
  {
    OFFSET 6.586455 1.015961 -5.284874
    CHANNELS 3 Zrotation Xrotation Yrotation
    JOINT KneeRight
    {
      OFFSET 5.316950 -28.527468 3.853367
      CHANNELS 3 Zrotation Xrotation Yrotation
      JOINT AnkleRight
      {
        OFFSET 2.000808 -33.959280 8.222841
        CHANNELS 3 Zrotation Xrotation Yrotation
        JOINT FootRight
        {
          OFFSET -3.534200 -4.260965 -11.744008
          CHANNELS 3 Zrotation Xrotation Yrotation
          End Site
          {
            OFFSET 0 0 0
          }
        }
      }
    }
  }
}
MOTION
Frames: 14
Frame Time: 0.033333
29.600328 72.354519 361.444216 -0.763351 1.924839 18.981277 0.115256 -0.044549 -18.982409 -0.002312 -0.132144 -0.021839 -7.606129 1.673363 0.179996 0.000000 0.000000 0.000000 -22.055476 21.102657 -1.935263 25.084405 -25.602450 14.869292 11.723963 16.367841 1.663618 -19.488187 -5.313629 34.658764 0.000000 0.000000 0.000000 0.000000 0.000000 0.000000 -12.279333 15.706827 10.850802 -1.535643 -12.231104 0.359006 0.599260 1.381170 -4.755596 35.077596 -19.406983 -0.576577 0.000000 0.000000 0.000000 0.000000 0.000000 0.000000 0.544102 -1.369701 -19.070265 -0.194969 -0.806719 0.115615 -0.000000 0.000000 0.000000 0.000000 0.000000 0.000000 -0.251330 -2.884292 -19.154890 0.060193 0.884566 0.172698 -0.588983 2.586253 -0.477120 0.000000 0.000000 0.000000
29.600431 72.331836 361.447393 -0.741193 1.928507 18.813898 0.107076 -0.055532 -18.814956 0.007055 -0.135121 -0.020245 -7.625302 1.700159 0.184138 0.000000 0.000000 0.000000 -19.145173 21.003264 -2.547330 22.433611 -25.857628 17.439867 13.066632 15.336968 -4.746760 -21.552312 -7.784490 36.820789 0.000000 0.000000 0.000000 0.000000 0.000000 0.000000 -12.326902 15.162601 10.658545 -1.487561 -11.624180 0.635316 1.557806 0.620070 -6.155543 36.446985 -17.125542 2.976766 0.000000 0.000000 0.000000 0.000000 0.000000 0.000000 0.079860 -2.064442 -18.799984 -0.000000 0.000000 0.000000 -0.000000 0.000000 0.000000 0.000000 0.000000 0.000000 -0.328657 -2.836705 -18.996641 0.134679 0.863035 0.178175 -0.561588 2.601255 -0.560018 0.000000 0.000000 0.000000
29.612563 72.300268 361.464226 -0.698613 1.929471 18.689821 0.092785 -0.040513 -18.691025 0.025051 -0.122114 -0.017303 -7.691192 1.623298 0.158849 0.000000 0.000000 0.000000 -15.837377 21.350345 -3.333380 19.426184 -26.406255 19.209114 14.707644 14.621714 -10.329949 -22.693488 -9.680342 38.290135 0.000000 0.000000 0.000000 0.000000 0.000000 0.000000 -12.317556 14.505527 10.394395 -1.491335 -10.873952 0.711011 2.391114 -0.061050 -6.297581 36.736858 -14.673824 5.970551 0.000000 0.000000 0.000000 0.000000 0.000000 0.000000 0.043659 -2.051543 -18.677275 -0.000000 0.000000 0.000000 -0.000000 0.000000 0.000000 0.000000 0.000000 0.000000 -0.452572 -2.740322 -18.882766 0.246371 0.812116 0.182999 -0.534228 2.615343 -0.642111 0.000000 0.000000 0.000000
29.621757 72.258177 361.487852 -0.669406 1.933092 18.591814 0.080886 -0.003886 -18.593422 0.023095 -0.096371 -0.016780 -7.627988 1.359622 0.094236 0.000000 0.000000 0.000000 -13.952125 20.812439 -3.678963 17.466336 -26.100009 19.168921 15.026942 14.214281 -12.052493 -22.577249 -9.745488 39.509146 0.000000 0.000000 0.000000 0.000000 0.000000 0.000000 -12.246263 13.826649 10.119806 -1.524239 -10.085445 0.553451 3.441019 -0.881052 -5.372810 33.934910 -13.670451 5.131742 0.000000 0.000000 0.000000 0.000000 0.000000 0.000000 0.018312 -2.045591 -18.580194 -0.000000 0.000000 0.000000 -0.000000 0.000000 0.000000 0.000000 0.000000 0.000000 -0.557197 -2.669811 -18.794981 0.343434 0.776117 0.188786 -0.508881 2.633101 -0.721715 0.000000 0.000000 0.000000
29.612469 72.223949 361.510022 -0.655363 1.922269 18.562539 0.086771 0.011390 -18.563858 0.034284 -0.086733 -0.014955 -7.713236 1.235459 0.052114 0.000000 0.000000 0.000000 -14.012640 19.830573 -3.510379 17.088103 -25.149232 17.189602 15.306514 14.808471 -10.810850 -22.450635 -9.846642 38.102723 0.000000 0.000000 0.000000 0.000000 0.000000 0.000000 -12.123476 13.151720 9.804111 -1.565210 -9.240176 0.226207 4.510485 -1.696356 -4.114616 30.939971 -11.972735 4.984289 0.000000 0.000000 0.000000 0.000000 0.000000 0.000000 0.387446 -1.207457 -18.677849 -0.094153 -0.901032 0.136413 -0.000000 0.000000 0.000000 0.000000 0.000000 0.000000 -0.582777 -2.611121 -18.763775 0.373849 0.739694 0.186000 -0.492954 2.644298 -0.771749 0.000000 0.000000 0.000000
29.586255 72.186342 361.531132 -0.666158 1.909102 18.556062 0.086961 0.019026 -18.557730 0.031674 -0.080624 -0.015722 -7.647476 1.144583 0.030736 0.000000 0.000000 0.000000 -16.224312 18.409373 -2.837954 18.605927 -23.601335 13.321113 14.113882 15.819190 -5.340420 -19.238268 -7.247674 33.002252 0.000000 0.000000 0.000000 0.000000 0.000000 0.000000 -11.909451 12.523398 9.485113 -1.282103 -8.635495 -0.330065 4.106097 -1.436937 -2.300738 31.224196 -13.481257 3.328446 0.000000 0.000000 0.000000 0.000000 0.000000 0.000000 0.437959 -1.105480 -18.685873 -0.098203 -1.000560 0.151771 -0.000000 0.000000 0.000000 0.000000 0.000000 0.000000 -0.543647 -2.577012 -18.747808 0.358948 0.708013 0.178273 -0.466744 2.664681 -0.855536 0.000000 0.000000 0.000000
29.551977 72.156041 361.548299 -0.696786 1.892393 18.548419 0.100217 0.023265 -18.550113 0.031490 -0.074953 -0.016552 -7.462502 1.040275 0.015165 0.000000 0.000000 0.000000 -17.134480 16.625018 -2.402473 18.811151 -21.772802 9.204647 13.637991 18.533526 2.692512 -21.981854 -8.876128 28.707245 0.000000 0.000000 0.000000 0.000000 0.000000 0.000000 -11.638958 11.944025 9.161513 -1.216962 -8.052579 -0.483303 4.070235 -1.475426 -1.986829 28.131188 -11.237340 3.934496 0.000000 0.000000 0.000000 0.000000 0.000000 0.000000 0.529877 -1.019102 -18.689412 -0.126653 -1.094956 0.164800 -0.000000 0.000000 0.000000 0.000000 0.000000 0.000000 0.058784 -2.015696 -18.535877 -0.000000 0.000000 0.000000 -0.436597 2.689704 -0.953048 0.000000 0.000000 0.000000
29.540599 72.112523 361.567409 -0.701441 1.887500 18.547996 0.124119 0.032006 -18.548701 0.037270 -0.064759 -0.015188 -7.292427 0.809809 -0.035217 0.000000 0.000000 0.000000 -18.218265 14.668089 -1.968293 19.307221 -19.816565 6.447470 13.874219 19.809862 5.017123 -23.596030 -9.905549 28.329933 0.000000 0.000000 0.000000 0.000000 0.000000 0.000000 -11.388001 11.434278 8.855847 -1.229126 -7.584836 -0.432460 3.837151 -1.383083 -2.291169 27.772682 -10.516369 4.682883 0.000000 0.000000 0.000000 0.000000 0.000000 0.000000 0.552360 -0.905982 -18.707202 -0.106666 -1.204436 0.183195 -0.000000 0.000000 0.000000 0.000000 0.000000 0.000000 0.064772 -2.012536 -18.535304 -0.000000 0.000000 0.000000 -0.399310 2.711547 -1.066747 0.000000 0.000000 0.000000
29.526821 72.069916 361.582290 -0.686685 1.898509 18.570095 0.146897 0.040898 -18.569406 0.040385 -0.054485 -0.013219 -7.176221 0.522322 -0.103866 0.000000 0.000000 0.000000 -19.719748 12.369249 -1.485113 20.292959 -17.783413 4.981462 12.619543 19.715859 7.816597 -27.447659 -12.920841 22.723523 0.000000 0.000000 0.000000 0.000000 0.000000 0.000000 -11.190506 11.000149 8.597496 -1.231076 -7.238585 -0.291874 3.559941 -1.267508 -3.029287 27.349096 -8.756843 6.891453 0.000000 0.000000 0.000000 0.000000 0.000000 0.000000 0.534404 -0.852723 -18.739843 -0.087324 -1.260495 0.193208 -0.000000 0.000000 0.000000 0.000000 0.000000 0.000000 0.046492 -2.018301 -18.557898 -0.000000 0.000000 0.000000 -0.366053 2.733243 -1.169777 0.000000 0.000000 0.000000
29.502295 72.029263 361.599721 -0.669584 1.915922 18.622438 0.175343 0.044015 -18.619931 0.047477 -0.048031 -0.010501 -7.124598 0.179488 -0.193932 0.000000 0.000000 0.000000 -20.886938 11.161064 -1.223398 21.140434 -16.775966 3.860938 13.552454 19.577986 4.914792 -27.495117 -13.527485 27.760521 0.000000 0.000000 0.000000 0.000000 0.000000 0.000000 -11.073650 10.646040 8.397641 -1.183094 -7.002051 -0.105894 3.282243 -1.163238 -4.187697 28.740195 -8.248313 8.595596 0.000000 0.000000 0.000000 0.000000 0.000000 0.000000 0.518941 -0.822942 -18.799540 -0.080559 -1.301901 0.200135 -0.000000 0.000000 0.000000 0.000000 0.000000 0.000000 0.022870 -2.029387 -18.610837 -0.000000 0.000000 0.000000 -0.322939 2.759748 -1.302069 0.000000 0.000000 0.000000
29.472778 71.999186 361.609671 -0.645074 1.947614 18.685752 0.202361 0.047265 -18.681250 0.055027 -0.043571 -0.007444 -7.145775 -0.234361 -0.309151 0.000000 0.000000 0.000000 -21.079600 10.779165 -1.192480 21.114800 -16.706460 2.996250 15.437641 20.977019 2.852508 -31.047117 -16.840952 28.832627 0.000000 0.000000 0.000000 0.000000 0.000000 0.000000 -10.982844 10.486675 8.278485 -1.089594 -7.140867 0.616983 3.725997 -1.527075 -6.244591 31.105342 -7.420952 10.867204 0.000000 0.000000 0.000000 0.000000 0.000000 0.000000 0.508545 -0.850461 -18.862098 -0.104720 -1.305108 0.199091 -0.000000 0.000000 0.000000 0.000000 0.000000 0.000000 -0.012760 -2.051585 -18.675016 -0.000000 0.000000 0.000000 -0.277025 2.787673 -1.442657 0.000000 0.000000 0.000000
29.457272 71.977268 361.615740 -0.588684 1.982954 18.721170 0.219115 0.039098 -18.714559 0.069430 -0.049020 -0.002761 -7.350500 -0.519659 -0.408198 0.000000 0.000000 0.000000 -20.022069 11.272818 -1.408739 19.809528 -17.871808 1.969276 18.814825 23.178523 -1.432628 -29.244253 -18.203309 22.314846 0.000000 0.000000 0.000000 0.000000 0.000000 0.000000 -10.915250 10.446260 8.191814 -1.109213 -7.155264 0.499012 4.302570 -1.996580 -6.317044 29.493859 -8.289600 8.501880 0.000000 0.000000 0.000000 0.000000 0.000000 0.000000 0.429227 -0.866720 -18.899573 -0.091607 -1.300041 0.199136 -0.000000 0.000000 0.000000 0.000000 0.000000 0.000000 -0.078817 -2.066956 -18.712403 0.890007 -0.227228 0.203695 -1.113830 3.044424 -1.772287 0.000000 0.000000 0.000000
29.450750 71.955497 361.620489 -0.516529 2.008601 18.768483 0.226030 0.035539 -18.760187 0.091139 -0.055291 0.002800 -7.651473 -0.766130 -0.507841 0.000000 0.000000 0.000000 -17.797936 12.613000 -1.902003 17.766310 -18.515369 1.361845 21.160358 23.075274 -5.780479 -24.890880 -17.748211 19.811509 0.000000 0.000000 0.000000 0.000000 0.000000 0.000000 -10.814497 10.436899 8.093972 -1.234966 -7.005175 -0.325381 5.458093 -2.750540 -4.041435 24.583343 -8.881506 4.111667 0.000000 0.000000 0.000000 0.000000 0.000000 0.000000 0.330886 -0.858319 -18.951588 -0.068450 -1.302525 0.201008 -0.000000 0.000000 0.000000 0.000000 0.000000 0.000000 -0.157144 -2.067967 -18.762264 0.999985 -0.338386 0.224880 -1.184557 3.169985 -1.899663 0.000000 0.000000 0.000000
29.440006 71.940481 361.624490 -0.457183 2.038436 18.808036 0.234885 0.021208 -18.798003 0.100058 -0.078100 0.006687 -7.975454 -1.064079 -0.629599 0.000000 0.000000 0.000000 -15.500335 13.159101 -2.322006 15.754471 -17.470286 0.347371 20.857514 21.034699 -7.001375 -18.777880 -13.198928 22.596758 0.000000 0.000000 0.000000 0.000000 0.000000 0.000000 -10.712857 10.526368 8.037976 -1.512855 -6.816669 -1.231875 7.564594 -3.997906 -1.373627 16.647441 -7.889300 -1.178514 0.000000 0.000000 0.000000 0.000000 0.000000 0.000000 0.291550 -0.902769 -18.986542 -0.105581 -1.278136 0.194810 -0.000000 0.000000 0.000000 0.000000 0.000000 0.000000 -0.842851 -2.735990 -19.033566 1.438361 0.406212 0.422782 -1.228076 3.262440 -1.976447 0.000000 0.000000 0.000000
